<svg width="44" height="44" viewBox="0 0 44 44" fill="none" xmlns="http://www.w3.org/2000/svg">
<g clip-path="url(#clip0_1161_5)">
<path d="M27.9859 38.132C31.8859 38.066 35.5859 38.5609 36.8189 39.0939C35.5989 39.3719 32.0009 38.861 27.9859 38.132ZM20.4169 18.5319L25.4659 23.5809L21.4269 27.619L16.3789 22.5709L20.4169 18.5319ZM29.1879 9.76095L34.2369 14.8089L30.1979 18.8479L25.1499 13.8L29.1879 9.76095ZM22.8409 37.1329C20.9049 36.7399 19.0639 36.351 17.5409 36.028C15.7349 35.646 14.217 35.3279 12.963 35.0749L16.1719 31.8659C16.2469 31.8659 16.3209 31.8879 16.3959 31.8879C16.9586 31.8887 17.5159 31.7783 18.0358 31.5629C18.5556 31.3475 19.0277 31.0315 19.4249 30.6329L20.765 29.2929L21.9339 28.1239L25.9719 24.0849L30.7049 19.3529L34.7439 15.3139L35.7799 14.2769L37.7469 12.3109C38.5335 11.5041 38.9705 10.42 38.9633 9.29324C38.9561 8.16652 38.5053 7.08798 37.7086 6.29126C36.9119 5.49453 35.8334 5.04376 34.7066 5.03659C33.5799 5.02941 32.4957 5.46641 31.6889 6.25293L29.7219 8.21893L28.6859 9.25595L24.6469 13.2949L19.9139 18.0269L15.8759 22.0659L14.7069 23.235L13.3669 24.5749C12.9438 24.9997 12.6151 25.509 12.4024 26.0696C12.1898 26.6302 12.0979 27.2294 12.1329 27.8279L6.83893 33.1219C6.57372 33.3871 6.36338 33.702 6.21985 34.0485C6.07632 34.395 6.00244 34.7664 6.00244 35.1414C6.00244 35.5165 6.07632 35.8879 6.21985 36.2344C6.36338 36.5809 6.57372 36.8957 6.83893 37.1609C7.10413 37.4262 7.419 37.6365 7.7655 37.7801C8.11201 37.9236 8.48337 37.9974 8.85843 37.9974C9.23348 37.9974 9.60488 37.9236 9.95139 37.7801C10.2979 37.6365 10.6127 37.4262 10.8779 37.1609L11.7469 36.291C13.2759 36.591 15.2279 36.998 17.2469 37.425C18.0396 37.593 18.8063 37.7546 19.5469 37.9099C12.3869 39.9099 9.03893 39.4009 8.17993 38.7559C7.94693 38.5819 7.94693 38.4459 7.94693 38.3879C7.94693 38.1986 7.87172 38.017 7.73782 37.8831C7.60392 37.7492 7.42231 37.6739 7.23294 37.6739C7.04358 37.6739 6.86196 37.7492 6.72806 37.8831C6.59416 38.017 6.51895 38.1986 6.51895 38.3879C6.51999 38.6859 6.59332 38.9791 6.73267 39.2425C6.87201 39.5058 7.07319 39.7315 7.31894 39.8999C8.46792 40.5634 9.79143 40.8619 11.114 40.7559C14.3936 40.6246 17.6402 40.0487 20.765 39.0439C21.4321 38.8511 22.1095 38.6955 22.7939 38.5779C31.9469 40.4289 36.6829 41.0609 37.9679 40.1239C38.2175 39.9825 38.4049 39.7527 38.4933 39.4798C38.5816 39.2069 38.5643 38.9107 38.4449 38.6499C37.5619 36.8619 28.8629 36.1669 22.8359 37.1329" fill="none"/>
</g>
<defs>
<clipPath id="clip0_1161_5">
<rect width="44" height="44" fill="none"/>
</clipPath>
</defs>
</svg>
