<svg width="44" height="44" viewBox="0 0 44 44" fill="none" xmlns="http://www.w3.org/2000/svg">
<g clip-path="url(#clip0_1161_8)">
<path d="M36.143 25.2L35.057 24.685C35.7848 22.4556 35.9766 20.0861 35.6169 17.7687C35.2571 15.4513 34.356 13.2514 32.9865 11.3476C31.6171 9.4438 29.818 7.88979 27.7354 6.81173C25.6527 5.73367 23.3451 5.16193 21 5.14297C17.0653 5.16112 13.2969 6.73225 10.5146 9.51455C7.73229 12.2969 6.16116 16.0653 6.14301 20C6.09099 23.6728 7.43932 27.2276 9.91401 29.942C12.3041 32.6973 15.6568 34.4352 19.286 34.8V35.942C16.2297 35.6016 13.3369 34.3849 10.9561 32.4383C8.57526 30.4918 6.80803 27.8985 5.86713 24.9707C4.92623 22.0429 4.85183 18.9055 5.6529 15.9365C6.45397 12.9674 8.09635 10.2932 10.3822 8.23599C12.6681 6.17879 15.4999 4.82631 18.5367 4.34146C21.5735 3.8566 24.6857 4.26003 27.4985 5.50317C30.3113 6.74631 32.7047 8.77613 34.3905 11.3482C36.0763 13.9202 36.9825 16.9248 37 20C37.004 21.7688 36.7144 23.526 36.143 25.2ZM11.286 10.342C9.99486 11.5931 8.9738 13.0956 8.28583 14.7567C7.59787 16.4178 7.25759 18.2023 7.28602 20C7.23579 23.3709 8.46051 26.6364 10.715 29.143C12.8967 31.6795 15.9602 33.2929 19.286 33.657V26.628H17.172C16.905 26.628 16.772 26.477 16.772 26.171V25.371C16.7658 25.2892 16.7841 25.2074 16.8248 25.1361C16.8654 25.0648 16.9264 25.0073 17 24.971C17.3433 24.857 17.6864 24.7236 18.0291 24.571C18.2712 24.492 18.5198 24.4344 18.772 24.399V15.257H18.715C18.295 15.295 17.8757 15.314 17.457 15.314H16.8861C16.8371 15.3186 16.7877 15.3134 16.7408 15.2985C16.6939 15.2837 16.6505 15.2595 16.6132 15.2275C16.5758 15.1955 16.5453 15.1562 16.5235 15.1122C16.5017 15.0681 16.4889 15.0201 16.486 14.971L16.372 14.228C16.3672 14.1238 16.3988 14.0213 16.4614 13.9379C16.524 13.8545 16.6137 13.7955 16.715 13.771C17.4531 13.5908 18.1784 13.3616 18.8861 13.085C19.6459 12.8008 20.3736 12.4371 21.057 12C21.1277 11.9629 21.2062 11.943 21.286 11.942H22.543C22.5974 11.9343 22.6527 11.9394 22.7047 11.9568C22.7567 11.9742 22.8041 12.0034 22.8428 12.0422C22.8816 12.081 22.9108 12.1283 22.9282 12.1803C22.9456 12.2323 22.9507 12.2877 22.9431 12.342V18.8L34.0291 24.171C34.4878 22.8284 34.7196 21.4188 34.715 20C34.7414 18.1973 34.3945 16.4087 33.6962 14.7465C32.9978 13.0844 31.9631 11.5848 30.657 10.342C27.991 7.64197 25.843 6.285 21 6.285C16.157 6.285 13.578 8.23297 11.286 10.342ZM22.086 39.771V21.485L38.429 29.428C38.4881 29.4779 38.5588 29.5122 38.6346 29.5277C38.7104 29.5432 38.7888 29.5395 38.8627 29.5168C38.9367 29.4941 39.0038 29.4532 39.0578 29.3979C39.1118 29.3425 39.1511 29.2744 39.172 29.2C39.2206 29.1356 39.2536 29.0608 39.2683 28.9814C39.283 28.9021 39.2792 28.8205 39.257 28.7429C39.2348 28.6654 39.1949 28.594 39.1404 28.5345C39.0859 28.475 39.0184 28.4289 38.9431 28.4L21.743 20.115C21.6689 20.0593 21.5787 20.0292 21.486 20.0292C21.3933 20.0292 21.3031 20.0593 21.229 20.115C21.1438 20.1574 21.0721 20.2225 21.0216 20.3032C20.9711 20.3838 20.944 20.4768 20.9431 20.572V39.772C20.9431 39.9236 21.0032 40.0689 21.1104 40.1761C21.2176 40.2833 21.363 40.3435 21.5145 40.3435C21.6661 40.3435 21.8115 40.2833 21.9186 40.1761C22.0258 40.0689 22.086 39.9236 22.086 39.772V39.771ZM23.229 37.028C25.8864 36.9656 28.4758 36.1753 30.715 34.743C32.8094 33.4131 34.5223 31.562 35.686 29.371L34.657 28.857C33.6223 30.9976 31.9962 32.797 29.971 34.0424C27.9457 35.2879 25.6062 35.9273 23.229 35.885V37.028Z" fill="none"/>
</g>
<defs>
<clipPath id="clip0_1161_8">
<rect width="44" height="44" fill="white"/>
</clipPath>
</defs>
</svg>
