<?xml version="1.0" encoding="UTF-8" standalone="no"?>
<svg
   id="logo_partner2"
   width="90"
   height="100"
   viewBox="0 0 90 100"
   version="1.1"
   sodipodi:docname="logo_partner2.svg"
   inkscape:version="1.1 (c68e22c387, 2021-05-23)"
   xmlns:inkscape="http://www.inkscape.org/namespaces/inkscape"
   xmlns:sodipodi="http://sodipodi.sourceforge.net/DTD/sodipodi-0.dtd"
   xmlns="http://www.w3.org/2000/svg"
   xmlns:svg="http://www.w3.org/2000/svg">
  <sodipodi:namedview
     id="namedview15"
     pagecolor="#ffffff"
     bordercolor="#666666"
     borderopacity="1.0"
     inkscape:pageshadow="2"
     inkscape:pageopacity="0.0"
     inkscape:pagecheckerboard="0"
     showgrid="false"
     inkscape:zoom="8.32"
     inkscape:cx="44.951923"
     inkscape:cy="58.112981"
     inkscape:window-width="1920"
     inkscape:window-height="1017"
     inkscape:window-x="-8"
     inkscape:window-y="-8"
     inkscape:window-maximized="1"
     inkscape:current-layer="logo_partner2" />
  <defs
     id="defs4">
    <clipPath
       id="clip-path">
      <rect
         id="Rectangle_37"
         data-name="Rectangle 37"
         width="90"
         height="100"
         transform="translate(35)"
         fill="none" />
    </clipPath>
  </defs>
  <g
     id="Mask_Group_2"
     data-name="Mask Group 2"
     transform="translate(-42.219232,5.9444278)"
     clip-path="url(#clip-path)">
    <g
       id="Group_11"
       data-name="Group 11"
       transform="translate(-264.707,-229.319)"
       opacity="0.35">
      <g
         id="Group_11-2"
         data-name="Group 11"
         transform="translate(306.857,234.333)">
        <path
           id="Path_40"
           data-name="Path 40"
           d="m 345.257,320.405 a 40.923,40.923 0 0 1 -34.1,-18.377 l -0.687,-1.033 0.687,-1.033 a 38.2,38.2 0 0 0 0,-42.185 l -0.687,-1.033 0.687,-1.033 a 40.819,40.819 0 0 1 68.194,0 l 0.687,1.033 -0.687,1.033 a 38.208,38.208 0 0 0 0,42.185 l 0.687,1.033 -0.687,1.033 a 40.921,40.921 0 0 1 -34.094,18.377 z"
           transform="translate(-306.857,-234.333)" />
        <path
           id="Path_41"
           data-name="Path 41"
           d="m 345.257,238.132 a 40.7,40.7 0 0 1 33.821,18.025 40.75,40.75 0 0 0 0,45.424 40.743,40.743 0 0 1 -67.642,0 40.751,40.751 0 0 0 0,-45.424 40.7,40.7 0 0 1 33.821,-18.025 m 0,-3.8 a 44.507,44.507 0 0 0 -36.973,19.7 l -1.427,2.121 1.427,2.121 a 36.951,36.951 0 0 1 0,41.182 l -1.427,2.121 1.427,2.121 a 44.542,44.542 0 0 0 73.947,0 l 1.427,-2.121 -1.427,-2.121 a 36.951,36.951 0 0 1 0,-41.182 l 1.427,-2.121 -1.427,-2.121 a 44.507,44.507 0 0 0 -36.973,-19.7 z"
           transform="translate(-306.857,-234.333)" />
      </g>
      <g
         id="Group_12"
         data-name="Group 12"
         transform="translate(309.267,236.333)">
        <path
           id="Path_42"
           data-name="Path 42"
           d="M 345.257,319.405 A 39.712,39.712 0 0 1 312.13,301.47 l -0.452,-0.682 0.452,-0.682 a 38.61,38.61 0 0 0 0,-42.472 l -0.452,-0.683 0.452,-0.682 a 39.561,39.561 0 0 1 66.254,0 l 0.452,0.682 -0.452,0.683 a 38.61,38.61 0 0 0 0,42.472 l 0.452,0.682 -0.452,0.682 a 39.712,39.712 0 0 1 -33.127,17.935 z"
           transform="translate(-309.267,-236.333)" />
        <path
           id="Path_43"
           data-name="Path 43"
           d="m 345.257,238.823 a 39.646,39.646 0 0 1 33.01,17.72 40.3,40.3 0 0 0 0,44.654 39.608,39.608 0 0 1 -66.021,0 40.3,40.3 0 0 0 0,-44.654 39.646,39.646 0 0 1 33.01,-17.72 m 0,-2.49 A 42.123,42.123 0 0 0 310.2,255.152 l -0.929,1.39 0.929,1.39 a 37.8,37.8 0 0 1 0,41.874 l -0.929,1.39 0.929,1.39 a 42.07,42.07 0 0 0 70.122,0 l 0.929,-1.39 -0.929,-1.39 a 37.8,37.8 0 0 1 0,-41.874 l 0.929,-1.39 -0.929,-1.39 a 42.123,42.123 0 0 0 -35.061,-18.819 z"
           transform="translate(-309.267,-236.333)"
           fill="#ffffff" />
      </g>
    </g>
  </g>
</svg>
