<?xml version="1.0" encoding="UTF-8" standalone="no"?>
<svg
   id="logo_partner6"
   width="114"
   height="100"
   viewBox="0 0 114 100"
   version="1.1"
   sodipodi:docname="logo_partner6.svg"
   inkscape:version="1.1 (c68e22c387, 2021-05-23)"
   xmlns:inkscape="http://www.inkscape.org/namespaces/inkscape"
   xmlns:sodipodi="http://sodipodi.sourceforge.net/DTD/sodipodi-0.dtd"
   xmlns="http://www.w3.org/2000/svg"
   xmlns:svg="http://www.w3.org/2000/svg">
  <sodipodi:namedview
     id="namedview901"
     pagecolor="#ffffff"
     bordercolor="#666666"
     borderopacity="1.0"
     inkscape:pageshadow="2"
     inkscape:pageopacity="0.0"
     inkscape:pagecheckerboard="0"
     showgrid="false"
     inkscape:zoom="8.32"
     inkscape:cx="56.971154"
     inkscape:cy="69.170673"
     inkscape:window-width="1920"
     inkscape:window-height="1017"
     inkscape:window-x="-8"
     inkscape:window-y="-8"
     inkscape:window-maximized="1"
     inkscape:current-layer="logo_partner6" />
  <defs
     id="defs877">
    <clipPath
       id="clip-path">
      <rect
         id="Rectangle_42"
         data-name="Rectangle 42"
         width="114"
         height="100"
         fill="none" />
    </clipPath>
  </defs>
  <g
     id="Mask_Group_6"
     data-name="Mask Group 6"
     clip-path="url(#clip-path)"
     transform="translate(0,8)">
    <g
       id="Group_50"
       data-name="Group 50"
       transform="translate(4,13.6)"
       opacity="0.35">
      <g
         id="Group_41"
         data-name="Group 41"
         transform="translate(0,8.487)">
        <g
           id="Group_41-2"
           data-name="Group 41"
           transform="translate(1.237,1.368)">
          <path
             id="Path_72"
             data-name="Path 72"
             d="m 506.369,511.714 2.457,-8.866 -7.379,-5.579 -0.583,-1.712 97.853,-43.932 0.615,1.809 -2.457,8.866 7.379,5.579 0.584,1.712 -97.853,43.932 z"
             transform="translate(-500.864,-451.625)"
             fill="#ffffff" />
        </g>
        <g
           id="Group_42"
           data-name="Group 42">
          <path
             id="Path_73"
             data-name="Path 73"
             d="m 598.934,451.672 0.39,1.155 -2.535,9.239 7.615,5.814 0.39,1.155 -98.028,44.439 -0.39,-1.155 2.535,-9.239 -7.615,-5.815 -0.39,-1.155 98.027,-44.439 m 0.615,-1.415 -1.042,0.472 -98.026,44.44 -0.853,0.387 0.3,0.887 0.39,1.155 0.1,0.3 0.251,0.192 7.06,5.391 -2.351,8.566 -0.084,0.305 0.1,0.3 0.39,1.155 0.366,1.084 1.042,-0.472 98.027,-44.439 0.853,-0.387 -0.3,-0.887 -0.39,-1.155 -0.1,-0.3 -0.251,-0.192 -7.061,-5.391 2.351,-8.566 0.083,-0.305 -0.1,-0.3 -0.39,-1.155 -0.366,-1.084 z"
             transform="translate(-499.627,-450.257)" />
        </g>
      </g>
      <g
         id="Group_42-2"
         data-name="Group 42"
         transform="translate(18.805)">
        <g
           id="Group_44"
           data-name="Group 44"
           transform="translate(3,3)">
          <path
             id="Path_74"
             data-name="Path 74"
             d="m 538.97,488.783 v -51.927 h 62.33 v 51.927 l -31.167,15.292 z"
             transform="translate(-538.97,-436.856)" />
        </g>
        <g
           id="Group_46"
           data-name="Group 46">
          <g
             id="Group_45"
             data-name="Group 45">
            <path
               id="Path_75"
               data-name="Path 75"
               d="m 601.2,436.961 v 51.771 l -31.062,15.226 -31.062,-15.226 V 436.961 H 601.2 m 3.1,-3.1 h -68.33 v 56.811 l 1.738,0.852 31.062,15.227 1.367,0.67 1.367,-0.67 31.062,-15.227 1.738,-0.852 v -56.816 z"
               transform="translate(-535.97,-433.856)" />
          </g>
        </g>
      </g>
      <g
         id="Group_43"
         data-name="Group 43"
         transform="translate(19.84,1.035)">
        <g
           id="Group_48"
           data-name="Group 48"
           transform="translate(2,2)">
          <path
             id="Path_76"
             data-name="Path 76"
             d="m 539.97,489.731 v -51.875 h 62.264 v 51.875 L 571.1,505 Z"
             transform="translate(-539.97,-437.856)" />
        </g>
        <g
           id="Group_49"
           data-name="Group 49">
          <path
             id="Path_77"
             data-name="Path 77"
             d="M 602.164,437.926 V 489.7 L 571.1,504.923 540.04,489.7 v -51.774 h 62.124 m 2.07,-2.07 H 537.97 v 55.13 l 1.159,0.568 31.062,15.227 0.911,0.447 0.911,-0.447 31.062,-15.227 1.159,-0.568 z"
             transform="translate(-537.97,-435.856)"
             fill="#ffffff" />
        </g>
      </g>
      <g
         id="Group_44-2"
         data-name="Group 44"
         transform="translate(17.269,5.463)">
        <path
           id="Path_78"
           data-name="Path 78"
           d="m 534,495.532 69.407,-30.877 V 445.963 L 534,476.84 Z"
           transform="translate(-533,-444.414)"
           fill="#ffffff" />
        <path
           id="Path_79"
           data-name="Path 79"
           d="M 533,497.082 V 476.69 l 71.407,-32.276 v 20.392 z m 1.035,-19.724 v 18.12 l 69.337,-31.34 v -18.12 z"
           transform="translate(-533,-444.414)" />
      </g>
    </g>
  </g>
</svg>
