<?xml version="1.0" encoding="utf-8"?><svg viewBox="0 0 502.66 502.66" xmlns="http://www.w3.org/2000/svg" xmlns:xlink="http://www.w3.org/1999/xlink"><style>:root>svg{display:none}:root>svg:target{display:block}</style><svg viewBox="0 0 23.65 18.686" id="basket" xmlns="http://www.w3.org/2000/svg"><path d="M-33.335 11.752l-3.712 6.496h-1.42a1.001 1.001 0 00-.965 1.263l2.799 10.263a2.004 2.004 0 001.93 1.474h10.473c.898 0 1.692-.605 1.93-1.475l2.799-10.263a.998.998 0 00-.966-1.262h-1.42l-3.712-6.496-1.736.992 3.145 5.504h-10.554l3.145-5.504zm5.868 10.496h2v5h-2zm-6 0h2v5h-2z"/><g transform="matrix(.5258 0 0 .47668 -39.927 -26.718)"><path d="M77.514 69.585l7.131 25.664.021-.021v.021h27.518v-.022l.021.022 7.131-25.664zm12.709 5.821a2.64 2.64 0 012.646 2.646v11.906a2.64 2.64 0 01-2.646 2.646 2.64 2.64 0 01-2.646-2.646V78.052a2.64 2.64 0 012.646-2.646zm8.202 0a2.64 2.64 0 012.646 2.646v11.906a2.64 2.64 0 01-2.646 2.646 2.64 2.64 0 01-2.646-2.646V78.052a2.64 2.64 0 012.646-2.646zm8.202 0a2.64 2.64 0 012.646 2.646v11.906a2.64 2.64 0 01-2.646 2.646 2.64 2.64 0 01-2.646-2.646V78.052a2.64 2.64 0 012.646-2.646z"/><rect width="44.979" height="3.969" x="75.935" y="68.792" ry="1.323"/><path d="M94.158 56.05a1.32 1.32 0 00-1.122.652L86.991 66.96a1.323 1.323 0 00-.174.509h4.48l5.158-8.752a1.32 1.32 0 00-.469-1.811l-1.14-.672a1.32 1.32 0 00-.688-.184zm8.533 0a1.32 1.32 0 011.123.652l6.045 10.258c.096.161.152.334.174.509h-4.48l-5.158-8.752a1.32 1.32 0 01.469-1.811l1.14-.672a1.32 1.32 0 01.688-.184z"/></g></svg><svg viewBox="0 0 14 14" id="ic_dropdown-arro" xmlns="http://www.w3.org/2000/svg"><g clip-path="url(#ba)"><path d="M11.69 5L7 9.69 2.31 5h9.38z"/></g><defs><clipPath id="ba"><path d="M0 0h14v14H0z"/></clipPath></defs></svg><svg viewBox="0 0 14 14" id="ic_dropdown-arrow1" xmlns="http://www.w3.org/2000/svg"><path data-name="Rectangle 35" d="M0 0h14v14H0z"/><path data-name="Path 26" d="M11.69 5L7 9.69 2.31 5z"/></svg><svg viewBox="0 0 14 14" id="ic_dropdown-arrow_" xmlns="http://www.w3.org/2000/svg"><g clip-path="url(#da)"><path d="M11.69 5L7 9.69 2.31 5h9.38z"/></g><defs><clipPath id="da"><path d="M0 0h14v14H0z"/></clipPath></defs></svg><svg viewBox="0 0 44 44" id="ic_fssp" xmlns="http://www.w3.org/2000/svg"><g clip-path="url(#ea)"><path d="M22.6 36.802a1.2 1.2 0 110 2.4H4.2a1.2 1.2 0 110-2.4h1.2a2.418 2.418 0 01.743-1.772 2.448 2.448 0 011.714-.685h11.028a2.348 2.348 0 012.458 2.457H22.6zM18.2 5.488a1.072 1.072 0 011.714-.115L30.2 14.002a1.071 1.071 0 01.114 1.714l-.857.971a1.053 1.053 0 01-1.714.172l-1.829-1.543c-.342-.266-.629-.247-.857.057a.535.535 0 00.057.857 1.075 1.075 0 01.114 1.715l-2.343 2.8 5.372 4.514a2.487 2.487 0 013.486-.286l9.657 8.343a1.1 1.1 0 01.172 1.714l-3.143 3.772a1.1 1.1 0 01-1.715.171L27 30.573a2.6 2.6 0 01-.857-1.657 2.425 2.425 0 01.571-1.771l-5.371-4.515L19 25.43a1.075 1.075 0 01-1.715.114.559.559 0 00-.856.114.535.535 0 00.057.857l1.885 1.543a1.073 1.073 0 01.115 1.714l-.857 1.029a1.1 1.1 0 01-1.715.171L5.686 22.344a1.112 1.112 0 01-.172-1.772l.857-.971a1.1 1.1 0 011.715-.171l1.828 1.6a.519.519 0 00.857-.114.536.536 0 00-.057-.857 1.07 1.07 0 01-.114-1.714l6.228-7.486a1.074 1.074 0 011.715-.115.519.519 0 00.857-.114.539.539 0 00-.057-.857L17.457 8.23a1.072 1.072 0 01-.114-1.714l.857-1.028z"/></g><defs><clipPath id="ea"><path d="M0 0h44v44H0z"/></clipPath></defs></svg><svg viewBox="0 0 44 44" id="ic_gibdd" xmlns="http://www.w3.org/2000/svg"><g clip-path="url(#fa)"><path d="M27.986 38.132c3.9-.066 7.6.429 8.833.962-1.22.278-4.818-.233-8.833-.962zm-7.57-19.6l5.05 5.049-4.04 4.038-5.047-5.048 4.038-4.04zm8.772-8.771l5.049 5.048-4.04 4.039L25.15 13.8l4.038-4.04zM22.84 37.133a617.86 617.86 0 01-5.3-1.105c-1.806-.382-3.324-.7-4.578-.953l3.209-3.21c.075 0 .149.023.224.023a4.268 4.268 0 003.029-1.255l1.34-1.34 1.169-1.17 4.038-4.038 4.733-4.732 4.039-4.04 1.036-1.036 1.967-1.966a4.283 4.283 0 00-6.058-6.058l-1.967 1.966-1.036 1.037-4.04 4.039-4.732 4.732-4.038 4.039-1.17 1.169-1.34 1.34a4.26 4.26 0 00-1.233 3.253l-5.294 5.294a2.856 2.856 0 004.039 4.039l.869-.87c1.529.3 3.48.707 5.5 1.134.793.168 1.56.33 2.3.485-7.16 2-10.508 1.49-11.367.846-.233-.174-.233-.31-.233-.368a.714.714 0 00-1.428 0 1.841 1.841 0 00.8 1.512 6.543 6.543 0 003.795.856 36.266 36.266 0 009.651-1.712 18.735 18.735 0 012.029-.466c9.153 1.85 13.889 2.483 15.174 1.546a1.146 1.146 0 00.477-1.474c-.883-1.788-9.582-2.483-15.61-1.517"/></g><defs><clipPath id="fa"><path d="M0 0h44v44H0z"/></clipPath></defs></svg><svg viewBox="0 0 44 44" id="ic_nalog" xmlns="http://www.w3.org/2000/svg"><g clip-path="url(#ga)"><path d="M36.143 25.2l-1.086-.515A14.915 14.915 0 0021 5.143 14.926 14.926 0 006.143 20a14.453 14.453 0 003.771 9.942 14.3 14.3 0 009.372 4.858v1.142A15.949 15.949 0 1137 20a15.985 15.985 0 01-.857 5.2zM11.286 10.342a13.158 13.158 0 00-4 9.658 13.374 13.374 0 003.429 9.143 13.2 13.2 0 008.571 4.514v-7.029h-2.114c-.267 0-.4-.151-.4-.457v-.8a.411.411 0 01.228-.4c.343-.114.686-.247 1.03-.4a4.34 4.34 0 01.742-.172v-9.142h-.057c-.42.038-.84.057-1.258.057h-.57a.367.367 0 01-.401-.343l-.114-.743a.449.449 0 01.343-.457c.738-.18 1.463-.41 2.171-.686.76-.284 1.488-.648 2.171-1.085a.507.507 0 01.229-.058h1.257a.353.353 0 01.4.4V18.8l11.086 5.371c.459-1.343.69-2.752.686-4.171a13.07 13.07 0 00-4.058-9.658c-2.666-2.7-4.814-4.057-9.657-4.057s-7.422 1.948-9.714 4.057zm10.8 29.429V21.485l16.343 7.943a.462.462 0 00.743-.228.52.52 0 00-.229-.8l-17.2-8.285a.428.428 0 00-.514 0 .516.516 0 00-.286.457v19.2a.571.571 0 101.143 0v-.001zm1.143-2.743a14.526 14.526 0 007.486-2.285 14.32 14.32 0 004.971-5.372l-1.029-.514a12.446 12.446 0 01-11.428 7.028v1.143z"/></g><defs><clipPath id="ga"><path d="M0 0h44v44H0z"/></clipPath></defs></svg><svg viewBox="0 0 44 44" id="ic_rr" xmlns="http://www.w3.org/2000/svg"><g clip-path="url(#ha)"><path d="M38.618 16.971a.547.547 0 01.17.629l-9.256 22.914a.487.487 0 01-.515.342.508.508 0 01-.228-.057l-12.171-4.457a.511.511 0 01-.343-.285.6.6 0 010-.515l1.085-2.171-11.028-5.257a.508.508 0 01-.286-.343.407.407 0 01.058-.457l3.428-6.057 9.6-16.972A.613.613 0 0119.704 4l12.17 1.257h.058a.161.161 0 00.114.057h.058v.057h.057v.057h.057l.057.057a.05.05 0 00.014.043.05.05 0 00.043.014v.115l.057.057v.228a.052.052 0 01-.014.043.051.051 0 01-.043.015v.057l-1.543 3.257 7.829 7.657zm-26.629 5.885l-4.514 4.515.857.4 4.571-4.571-.914-.344zm-3.2 2l2.286-2.342-.8-.286-1.486 2.628zm.343 3.315l.857.4 4.743-4.743-.914-.343-4.686 4.686zm1.657.8l.857.4 4.857-4.914-.914-.286-4.8 4.8zm1.657.8l.857.4 5.029-5.028-.915-.344-4.971 4.972zm1.658.8l.856.4 5.2-5.2-.915-.343-5.141 5.143zm3.256-20.8l-1.656 2.914 7.142-7.2-1.085-.114-4.401 4.4zm-1.6 21.543l.857.4 5.314-5.315-.915-.342-5.256 5.257zm9.314-25.6L23.988 5.6l-7.714 7.714.97.286 7.83-7.886zm-7.658 26.4l.858.4 5.486-5.486-.915-.286-5.429 5.372zm8.172-4.4l-.914-.343-6 6-1.086 2.114.115.057 7.885-7.828zm1.714-21.772l-1.085-.114-8.057 8.057.97.229 8.172-8.172zm.057 22.4L26.445 28l-7.828 7.885.914.343 7.828-7.886zM20.674 5.257l-.743-.057-1.029 1.771 1.772-1.714zm8.857.914l-1.086-.114-8.342 8.342.971.286 8.457-8.514zm-.343 22.8l-.914-.343-7.886 7.886.914.342 7.886-7.885zm1.486-22.686l-8.686 8.629.97.286 7.145-7.143.856-1.715-.285-.057zm.285 23.315l-.914-.286-7.828 7.886.857.285 7.885-7.885zm-1.943-19.2l-5.085 5.086.971.229 2.972-2.972 1.142-2.343zm3.429 19.772l-.571-.229-7.886 7.886.914.343 7.258-7.315.285-.685zm5.143-12.686L30.274 10.4l-2.915 6.057 1.657.458a.513.513 0 01.343.286.607.607 0 010 .514l-4.171 8.628 7.714 2.743 4.686-11.6zM26.674 38.8l3.828-3.828.857-2.057-5.6 5.6.915.285zm.114-23.714l-.971.915.457.114.514-1.03zm2.915 21.943l-2.115 2.115 1.086.4 1.029-2.515z"/></g><defs><clipPath id="ha"><path d="M0 0h44v44H0z"/></clipPath></defs></svg><svg viewBox="0 0 24 24" id="ic_search" xmlns="http://www.w3.org/2000/svg"><g clip-path="url(#ia)"><path d="M20.152 22.529l-3.564-3.565a1.391 1.391 0 01-.1-.111 9.175 9.175 0 01-5.245 1.629 9.179 9.179 0 01-6.534-2.706 9.179 9.179 0 01-2.707-6.535 9.177 9.177 0 012.707-6.534A9.177 9.177 0 0111.243 2a9.183 9.183 0 016.535 2.706 9.182 9.182 0 012.706 6.535 9.175 9.175 0 01-1.63 5.245c.038.032.075.065.111.1l3.564 3.565a1.68 1.68 0 01-2.377 2.378zM6.489 6.489a6.728 6.728 0 000 9.5 6.728 6.728 0 009.5 0 6.728 6.728 0 000-9.5 6.7 6.7 0 00-4.753-1.966 6.7 6.7 0 00-4.747 1.966z"/></g><defs><clipPath id="ia"><path d="M0 0h24v24H0z"/></clipPath></defs></svg><svg viewBox="0 0 502.664 502.664" id="icon" xmlns="http://www.w3.org/2000/svg"><path d="M153.821 358.226L0 274.337v-46.463l153.821-83.414v54.574L46.636 250.523l107.185 53.431v54.272zm26.273 29.358L282.103 115.08h32.227L212.084 387.584h-31.99zm168.749-29.358v-54.272l107.164-52.999-107.164-52.59v-53.927l153.821 83.522v46.183l-153.821 84.083z"/></svg></svg>