<?xml version="1.0" encoding="utf-8"?><svg viewBox="0 0 502.66 502.66" xmlns="http://www.w3.org/2000/svg" xmlns:xlink="http://www.w3.org/1999/xlink"><style>:root>svg{display:none}:root>svg:target{display:block}</style><svg viewBox="0 0 23.65 18.686" id="basket" xmlns="http://www.w3.org/2000/svg"><path d="M-33.335 11.752l-3.712 6.496h-1.42a1.001 1.001 0 00-.965 1.263l2.799 10.263a2.004 2.004 0 001.93 1.474h10.473c.898 0 1.692-.605 1.93-1.475l2.799-10.263a.998.998 0 00-.966-1.262h-1.42l-3.712-6.496-1.736.992 3.145 5.504h-10.554l3.145-5.504zm5.868 10.496h2v5h-2zm-6 0h2v5h-2z"/><g transform="matrix(.5258 0 0 .47668 -39.927 -26.718)"><path d="M77.514 69.585l7.131 25.664.021-.021v.021h27.518v-.022l.021.022 7.131-25.664zm12.709 5.821a2.64 2.64 0 012.646 2.646v11.906a2.64 2.64 0 01-2.646 2.646 2.64 2.64 0 01-2.646-2.646V78.052a2.64 2.64 0 012.646-2.646zm8.202 0a2.64 2.64 0 012.646 2.646v11.906a2.64 2.64 0 01-2.646 2.646 2.64 2.64 0 01-2.646-2.646V78.052a2.64 2.64 0 012.646-2.646zm8.202 0a2.64 2.64 0 012.646 2.646v11.906a2.64 2.64 0 01-2.646 2.646 2.64 2.64 0 01-2.646-2.646V78.052a2.64 2.64 0 012.646-2.646z"/><rect width="44.979" height="3.969" x="75.935" y="68.792" ry="1.323"/><path d="M94.158 56.05a1.32 1.32 0 00-1.122.652L86.991 66.96a1.323 1.323 0 00-.174.509h4.48l5.158-8.752a1.32 1.32 0 00-.469-1.811l-1.14-.672a1.32 1.32 0 00-.688-.184zm8.533 0a1.32 1.32 0 011.123.652l6.045 10.258c.096.161.152.334.174.509h-4.48l-5.158-8.752a1.32 1.32 0 01.469-1.811l1.14-.672a1.32 1.32 0 01.688-.184z"/></g></svg><svg viewBox="0 0 24 24" id="ic_search" xmlns="http://www.w3.org/2000/svg"><path data-name="Rectangle 31" d="M0 0h24v24H0z"/><path data-name="Union 2" d="M20.152 22.529l-3.564-3.565q-.054-.054-.1-.111a9.176 9.176 0 01-5.245 1.629 9.18 9.18 0 01-6.534-2.706 9.18 9.18 0 01-2.707-6.535 9.177 9.177 0 012.707-6.534A9.177 9.177 0 0111.243 2a9.183 9.183 0 016.535 2.706 9.183 9.183 0 012.706 6.535 9.176 9.176 0 01-1.63 5.245q.057.048.111.1l3.564 3.565a1.68 1.68 0 010 2.376 1.675 1.675 0 01-1.188.492 1.675 1.675 0 01-1.189-.49zM6.489 6.489a6.728 6.728 0 000 9.5 6.728 6.728 0 009.5 0 6.728 6.728 0 000-9.5 6.7 6.7 0 00-4.753-1.966 6.7 6.7 0 00-4.747 1.966z"/></svg><svg viewBox="0 0 502.664 502.664" id="icon" xmlns="http://www.w3.org/2000/svg"><path d="M153.821 358.226L0 274.337v-46.463l153.821-83.414v54.574L46.636 250.523l107.185 53.431v54.272zm26.273 29.358L282.103 115.08h32.227L212.084 387.584h-31.99zm168.749-29.358v-54.272l107.164-52.999-107.164-52.59v-53.927l153.821 83.522v46.183l-153.821 84.083z"/></svg></svg>