<?xml version="1.0" encoding="UTF-8" standalone="no"?>
<svg
   height="18.685799"
   viewBox="0 0 23.650036 18.685799"
   width="23.650036"
   version="1.1"
   id="svg4"
   sodipodi:docname="basket.svg"
   inkscape:version="1.1 (c68e22c387, 2021-05-23)"
   xmlns:inkscape="http://www.inkscape.org/namespaces/inkscape"
   xmlns:sodipodi="http://sodipodi.sourceforge.net/DTD/sodipodi-0.dtd"
   xmlns="http://www.w3.org/2000/svg"
   xmlns:svg="http://www.w3.org/2000/svg">
  <defs
     id="defs8" />
  <sodipodi:namedview
     id="namedview6"
     pagecolor="#ffffff"
     bordercolor="#666666"
     borderopacity="1.0"
     inkscape:pageshadow="2"
     inkscape:pageopacity="0.0"
     inkscape:pagecheckerboard="0"
     showgrid="false"
     inkscape:zoom="34.666668"
     inkscape:cx="13.326923"
     inkscape:cy="9.7932689"
     inkscape:window-width="1920"
     inkscape:window-height="1017"
     inkscape:window-x="-8"
     inkscape:window-y="-8"
     inkscape:window-maximized="1"
     inkscape:current-layer="svg4" />
  <path
     d="m -33.335102,11.751957 -3.712,6.496 h -1.42 a 1.001,1.001 0 0 0 -0.965,1.263 l 2.799,10.263 a 2.004,2.004 0 0 0 1.93,1.474 h 10.473 c 0.898,0 1.692,-0.605 1.93,-1.475 l 2.799,-10.263 a 0.998,0.998 0 0 0 -0.966,-1.262 h -1.42 l -3.712,-6.496 -1.736,0.992 3.145,5.504 h -10.554 l 3.145,-5.504 z m 5.868,10.496 h 2 v 5 h -2 z m -6,0 h 2 v 5 h -2 z"
     id="path2" />
  <g
     id="g954"
     style="display:inline;fill:#1f1206;fill-opacity:1"
     transform="matrix(0.52579977,0,0,0.47668123,77.681592,216.29797)"
     inkscape:export-filename="C:\Users\User\Documents\иконки\g.png"
     inkscape:export-xdpi="96"
     inkscape:export-ydpi="96">
    <g
       id="g4891"
       transform="translate(-223.67533,-509.80781)"
       style="fill:#1f1206;fill-opacity:1">
      <path
         id="path2888"
         style="fill:#1f1206;fill-opacity:1;stroke:none;stroke-width:0.665001"
         d="m 77.513911,69.585417 7.131346,25.664067 0.02119,-0.0217 v 0.0217 h 27.517183 v -0.02222 l 0.0217,0.02222 7.13084,-25.664067 z m 12.708784,5.820833 h 5.16e-4 c 1.465791,0 2.645317,1.179526 2.645317,2.645318 v 11.906766 c 0,1.465789 -1.179526,2.645833 -2.645317,2.645833 h -5.16e-4 c -1.465792,0 -2.645834,-1.180044 -2.645834,-2.645833 V 78.051568 c 0,-1.465792 1.180042,-2.645318 2.645834,-2.645318 z m 8.202082,0 c 1.46579,0 2.645843,1.179526 2.645843,2.645318 v 11.906766 c 0,1.465789 -1.180053,2.645833 -2.645843,2.645833 -1.46579,0 -2.64583,-1.180044 -2.64583,-2.645833 V 78.051568 c 0,-1.465792 1.18004,-2.645318 2.64583,-2.645318 z m 8.202093,0 h 5.1e-4 c 1.46579,0 2.64532,1.179526 2.64532,2.645318 v 11.906766 c 0,1.465789 -1.17953,2.645833 -2.64532,2.645833 h -5.1e-4 c -1.46579,0 -2.64584,-1.180044 -2.64584,-2.645833 V 78.051568 c 0,-1.465792 1.18005,-2.645318 2.64584,-2.645318 z" />
      <rect
         style="fill:#1f1206;fill-opacity:1;stroke:none;stroke-width:0.665001"
         id="rect3806"
         width="44.979168"
         height="3.96875"
         x="75.935455"
         y="68.791664"
         ry="1.3229166" />
      <g
         id="g4644"
         transform="translate(0.2310355)"
         style="fill:#1f1206;fill-opacity:1">
        <path
           style="display:inline;fill:#1f1206;fill-opacity:1;stroke:none;stroke-width:0.665001"
           d="m 93.927083,56.04981 c -0.446503,0.0056 -0.878231,0.237786 -1.12241,0.652156 l -6.04511,10.257771 c -0.09519,0.161539 -0.151826,0.334629 -0.173633,0.509013 h 4.480346 l 5.157309,-8.751919 c 0.372086,-0.63142 0.163232,-1.439174 -0.468189,-1.811261 L 94.615931,56.233777 C 94.39888,56.105873 94.160967,56.046865 93.927083,56.04981 Z"
           id="rect3806-0-9" />
        <path
           style="display:inline;fill:#1f1206;fill-opacity:1;stroke:none;stroke-width:0.665001"
           d="m 102.46093,56.04981 c 0.4465,0.0056 0.87823,0.237786 1.12241,0.652156 l 6.04511,10.257771 c 0.0952,0.161539 0.15183,0.334629 0.17363,0.509013 h -4.48034 l -5.15731,-8.751919 c -0.372088,-0.63142 -0.16323,-1.439174 0.46819,-1.811261 l 1.13946,-0.671793 c 0.21705,-0.127904 0.45497,-0.186912 0.68885,-0.183967 z"
           id="rect3806-0-9-5" />
      </g>
    </g>
  </g>
</svg>
