<svg width="44" height="44" viewBox="0 0 44 44" fill="none" xmlns="http://www.w3.org/2000/svg">
<g clip-path="url(#clip0_1161_14)">
<path d="M22.6 36.802C22.9183 36.802 23.2235 36.9284 23.4485 37.1534C23.6736 37.3785 23.8 37.6837 23.8 38.002C23.8 38.3202 23.6736 38.6255 23.4485 38.8505C23.2235 39.0756 22.9183 39.202 22.6 39.202H4.19998C3.88172 39.202 3.57651 39.0756 3.35147 38.8505C3.12643 38.6255 3 38.3202 3 38.002C3 37.6837 3.12643 37.3785 3.35147 37.1534C3.57651 36.9284 3.88172 36.802 4.19998 36.802H5.39999C5.39617 36.4715 5.46013 36.1438 5.58792 35.839C5.71571 35.5342 5.90464 35.2589 6.14301 35.03C6.60313 34.5868 7.21819 34.341 7.85699 34.345H18.885C19.2118 34.3294 19.5383 34.3823 19.8435 34.5003C20.1487 34.6183 20.4258 34.7987 20.6573 35.03C20.8887 35.2613 21.0692 35.5384 21.1873 35.8436C21.3054 36.1487 21.3584 36.4751 21.343 36.802H22.6ZM18.2 5.48797C18.2905 5.34777 18.4125 5.23068 18.5562 5.14599C18.7 5.0613 18.8616 5.01138 19.0281 5.00021C19.1946 4.98904 19.3614 5.01691 19.5152 5.08163C19.669 5.14635 19.8056 5.24613 19.914 5.37298L30.2 14.002C30.3401 14.0926 30.4572 14.2146 30.5418 14.3585C30.6264 14.5023 30.6762 14.6639 30.6872 14.8304C30.6983 14.9969 30.6704 15.1636 30.6056 15.3174C30.5408 15.4711 30.4409 15.6076 30.314 15.716L29.457 16.687C29.3741 16.8341 29.257 16.9592 29.1156 17.0516C28.9742 17.144 28.8127 17.2011 28.6446 17.218C28.4766 17.2348 28.3069 17.211 28.15 17.1486C27.9931 17.0861 27.8535 16.9867 27.743 16.859L25.914 15.316C25.572 15.05 25.285 15.069 25.057 15.373C24.9936 15.4272 24.9438 15.4955 24.9115 15.5723C24.8791 15.6492 24.8652 15.7325 24.8707 15.8158C24.8762 15.899 24.9011 15.9798 24.9433 16.0517C24.9856 16.1236 25.044 16.1846 25.114 16.23C25.2536 16.3211 25.3702 16.4434 25.4544 16.5873C25.5386 16.7312 25.5882 16.8927 25.5992 17.059C25.6103 17.2254 25.5825 17.392 25.5181 17.5458C25.4537 17.6995 25.3543 17.8362 25.228 17.945L22.885 20.745L28.257 25.259C28.6834 24.7619 29.2886 24.4532 29.9413 24.3996C30.5939 24.3461 31.2413 24.5521 31.743 24.973L41.4 33.316C41.5393 33.4055 41.6566 33.5254 41.7431 33.6666C41.8297 33.8078 41.8832 33.9667 41.8997 34.1315C41.9162 34.2962 41.8953 34.4626 41.8386 34.6182C41.7819 34.7738 41.6907 34.9146 41.572 35.03L38.429 38.802C38.3394 38.9414 38.2194 39.0587 38.0781 39.1453C37.9368 39.2318 37.7777 39.2853 37.6128 39.3018C37.4479 39.3182 37.2814 39.2972 37.1258 39.2403C36.9701 39.1833 36.8294 39.092 36.714 38.973L27 30.573C26.5192 30.1457 26.2138 29.5553 26.143 28.916C26.1169 28.5977 26.1539 28.2775 26.2519 27.9736C26.3499 27.6697 26.507 27.3881 26.714 27.145L21.343 22.63L19 25.43C18.909 25.5698 18.7867 25.6865 18.6429 25.7708C18.499 25.8551 18.3374 25.9048 18.171 25.9159C18.0046 25.9269 17.8379 25.8991 17.6841 25.8346C17.5303 25.77 17.3937 25.6705 17.285 25.544C17.2247 25.4875 17.1526 25.4452 17.0739 25.4199C16.9952 25.3947 16.9119 25.3873 16.83 25.3982C16.7481 25.4091 16.6697 25.4381 16.6003 25.483C16.531 25.5279 16.4724 25.5877 16.429 25.658C16.3656 25.7122 16.3158 25.7805 16.2835 25.8573C16.2511 25.9342 16.2372 26.0176 16.2427 26.1008C16.2482 26.184 16.2731 26.2648 16.3153 26.3367C16.3576 26.4086 16.416 26.4696 16.486 26.515L18.371 28.058C18.5107 28.1489 18.6273 28.271 18.7116 28.4148C18.7959 28.5585 18.8456 28.72 18.8568 28.8863C18.8679 29.0525 18.8403 29.2191 18.7759 29.3729C18.7116 29.5266 18.6123 29.6632 18.486 29.772L17.629 30.801C17.5394 30.9404 17.4194 31.0577 17.2781 31.1443C17.1368 31.2308 16.9777 31.2843 16.8128 31.3008C16.6479 31.3172 16.4814 31.2962 16.3258 31.2393C16.1701 31.1823 16.0293 31.0909 15.914 30.972L5.686 22.344C5.53833 22.2543 5.41356 22.1314 5.32166 21.9851C5.22975 21.8387 5.17322 21.673 5.15652 21.501C5.13983 21.329 5.16344 21.1555 5.22549 20.9943C5.28754 20.833 5.38634 20.6884 5.51401 20.572L6.371 19.601C6.46061 19.4616 6.58056 19.3442 6.72189 19.2577C6.86323 19.1711 7.02229 19.1176 7.18719 19.1012C7.3521 19.0847 7.51859 19.1058 7.67422 19.1627C7.82986 19.2196 7.97063 19.311 8.086 19.43L9.914 21.03C9.97022 21.0946 10.0416 21.1443 10.1217 21.1746C10.2018 21.2049 10.2883 21.2148 10.3732 21.2035C10.4581 21.1922 10.5389 21.16 10.6083 21.1099C10.6777 21.0597 10.7336 20.9931 10.771 20.916C10.8342 20.8616 10.8838 20.7934 10.916 20.7165C10.9483 20.6397 10.9621 20.5564 10.9566 20.4732C10.9511 20.3901 10.9263 20.3094 10.8842 20.2375C10.8421 20.1656 10.7838 20.1045 10.714 20.059C10.5735 19.9687 10.4562 19.8467 10.3713 19.7029C10.2865 19.559 10.2365 19.3973 10.2254 19.2307C10.2143 19.064 10.2424 18.8971 10.3075 18.7433C10.3725 18.5895 10.4727 18.4531 10.6 18.345L16.828 10.859C16.9191 10.7194 17.0414 10.603 17.1853 10.5188C17.3291 10.4346 17.4905 10.385 17.6568 10.3739C17.8231 10.3627 17.9897 10.3904 18.1435 10.4546C18.2972 10.5188 18.434 10.6179 18.543 10.744C18.5992 10.8086 18.6706 10.8583 18.7507 10.8886C18.8308 10.9189 18.9172 10.9288 19.0022 10.9175C19.0871 10.9062 19.1678 10.8741 19.2373 10.8239C19.3067 10.7737 19.3626 10.7071 19.4 10.63C19.463 10.5755 19.5125 10.5072 19.5446 10.4304C19.5767 10.3536 19.5905 10.2703 19.5849 10.1873C19.5794 10.1042 19.5547 10.0235 19.5127 9.95165C19.4707 9.87976 19.4126 9.8186 19.343 9.77297L17.457 8.22997C17.3172 8.13912 17.2005 8.01694 17.1162 7.87313C17.0318 7.72932 16.9822 7.56786 16.9711 7.40151C16.96 7.23516 16.9878 7.06853 17.0524 6.91482C17.117 6.76111 17.2165 6.62455 17.343 6.51598L18.2 5.48797Z" fill="none"/>
</g>
<defs>
<clipPath id="clip0_1161_14">
<rect width="44" height="44" fill="none"/>
</clipPath>
</defs>
</svg>
