<svg width="44" height="44" viewBox="0 0 44 44" fill="none" xmlns="http://www.w3.org/2000/svg">
<g clip-path="url(#clip0_1161_11)">
<path d="M38.6179 16.971C38.7101 17.0436 38.7766 17.1439 38.8074 17.2572C38.8382 17.3705 38.8317 17.4906 38.7889 17.6L29.5319 40.514C29.4989 40.6218 29.4296 40.7148 29.3357 40.7771C29.2418 40.8395 29.1291 40.8674 29.017 40.856C28.9376 40.8551 28.8594 40.8356 28.7889 40.799L16.6179 36.342C16.5429 36.3235 16.4731 36.2883 16.4136 36.2389C16.3542 36.1896 16.3068 36.1273 16.275 36.057C16.2367 35.9765 16.2169 35.8885 16.2169 35.7994C16.2169 35.7104 16.2367 35.6224 16.275 35.542L17.3599 33.371L6.33198 28.114C6.26132 28.0824 6.1988 28.035 6.14924 27.9756C6.09967 27.9161 6.06436 27.8461 6.04596 27.7709C6.00833 27.6978 5.99374 27.615 6.00409 27.5335C6.01445 27.4519 6.04924 27.3753 6.10395 27.3139L9.53193 21.257L19.132 4.28495C19.1919 4.18944 19.277 4.1123 19.3779 4.06202C19.4788 4.01174 19.5917 3.99026 19.704 3.99995L31.8749 5.25697H31.932C31.9461 5.27368 31.9635 5.28733 31.9831 5.29713C32.0027 5.30693 32.0241 5.31265 32.046 5.31395H32.1039V5.37095H32.161V5.42796H32.218L32.275 5.48497C32.2738 5.49272 32.2744 5.50064 32.2769 5.5081C32.2793 5.51556 32.2835 5.52235 32.289 5.5279C32.2946 5.53345 32.3013 5.53761 32.3088 5.54005C32.3162 5.54249 32.3242 5.54316 32.332 5.54197V5.65696L32.389 5.71397V5.94197C32.3901 5.94976 32.3894 5.9577 32.387 5.96519C32.3845 5.97268 32.3804 5.9795 32.3749 5.98512C32.3694 5.99074 32.3626 5.995 32.3552 5.99757C32.3477 6.00014 32.3398 6.00096 32.332 5.99995V6.05696L30.7889 9.31395L38.6179 16.971ZM11.989 22.856L7.47498 27.371L8.33198 27.7709L12.903 23.2L11.989 22.856ZM8.78895 24.856L11.075 22.514L10.275 22.2279L8.78895 24.856ZM9.13196 28.171L9.98896 28.571L14.7319 23.828L13.8179 23.485L9.13196 28.171ZM10.7889 28.971L11.6459 29.371L16.5029 24.457L15.5889 24.171L10.7889 28.971ZM12.4459 29.7709L13.303 30.171L18.332 25.143L17.4169 24.799L12.4459 29.7709ZM14.1039 30.571L14.96 30.971L20.16 25.7709L19.2449 25.428L14.1039 30.571ZM17.3599 9.77095L15.704 12.6849L22.846 5.48497L21.7609 5.37095L17.3599 9.77095ZM15.76 31.3139L16.6169 31.714L21.931 26.399L21.0159 26.057L15.76 31.3139ZM25.074 5.71397L23.988 5.59996L16.2739 13.3139L17.2449 13.6L25.074 5.71397ZM17.416 32.114L18.2739 32.514L23.76 27.028L22.845 26.742L17.416 32.114ZM25.588 27.714L24.674 27.371L18.674 33.371L17.588 35.485L17.7029 35.542L25.588 27.714ZM27.3019 5.94197L26.217 5.82795L18.16 13.885L19.1309 14.114L27.3019 5.94197ZM27.359 28.342L26.445 28L18.6169 35.885L19.5309 36.2279L27.359 28.342ZM20.674 5.25697L19.931 5.19996L18.902 6.97096L20.674 5.25697ZM29.531 6.17097L28.445 6.05696L20.103 14.399L21.074 14.6849L29.531 6.17097ZM29.1879 28.971L28.2739 28.628L20.3879 36.514L21.3019 36.856L29.1879 28.971ZM30.674 6.28495L21.988 14.914L22.9589 15.2L30.103 8.05696L30.9589 6.34196L30.674 6.28495ZM30.9589 29.6L30.0449 29.3139L22.217 37.2L23.074 37.485L30.9589 29.6ZM29.0159 10.3999L23.931 15.486L24.902 15.7149L27.874 12.743L29.0159 10.3999ZM32.445 30.1719L31.874 29.943L23.988 37.829L24.902 38.1719L32.16 30.8569L32.445 30.1719ZM37.588 17.486L30.2739 10.3999L27.359 16.457L29.0159 16.915C29.091 16.9337 29.1608 16.9692 29.2202 17.0187C29.2796 17.0682 29.327 17.1305 29.359 17.201C29.3966 17.2814 29.4161 17.3691 29.4161 17.458C29.4161 17.5468 29.3966 17.6345 29.359 17.7149L25.1879 26.343L32.902 29.0859L37.588 17.486ZM26.674 38.8L30.502 34.972L31.359 32.915L25.759 38.515L26.674 38.8ZM26.788 15.0859L25.817 16.001L26.2739 16.115L26.788 15.0859ZM29.7029 37.029L27.588 39.144L28.674 39.544L29.7029 37.029Z" fill="none"/>
</g>
<defs>
<clipPath id="clip0_1161_11">
<rect width="44" height="44" fill="white"/>
</clipPath>
</defs>
</svg>
