<svg width="24" height="24" viewBox="0 0 24 24" fill="none" xmlns="http://www.w3.org/2000/svg">
<g clip-path="url(#clip0_1161_26)">
<path d="M20.152 22.529L16.588 18.964C16.552 18.928 16.5186 18.891 16.488 18.853C14.9469 19.9188 13.1166 20.4873 11.243 20.482C10.029 20.4854 8.82655 20.248 7.70499 19.7835C6.58343 19.319 5.56512 18.6367 4.70902 17.776C3.84806 16.9199 3.1655 15.9015 2.70084 14.7797C2.23618 13.658 1.99861 12.4552 2.00199 11.241C1.99858 10.027 2.23605 8.82437 2.70072 7.70278C3.16539 6.5812 3.84804 5.56295 4.70902 4.70704C5.56494 3.84606 6.58316 3.16347 7.70475 2.6988C8.82634 2.23413 10.0289 1.99663 11.243 2.00004C12.457 1.99669 13.6598 2.23413 14.7815 2.69861C15.9032 3.16309 16.9217 3.84539 17.778 4.70604C18.6386 5.56235 19.321 6.58083 19.7854 7.70255C20.2499 8.82427 20.4874 10.027 20.484 11.241C20.489 13.1148 19.9201 14.9451 18.854 16.486C18.892 16.518 18.929 16.5514 18.965 16.586L22.529 20.151C22.685 20.307 22.8088 20.4923 22.8932 20.6961C22.9777 20.8999 23.0212 21.1184 23.0212 21.339C23.0212 21.5597 22.9777 21.7781 22.8932 21.982C22.8088 22.1858 22.685 22.371 22.529 22.527C22.3731 22.6833 22.1879 22.8071 21.984 22.8916C21.7802 22.976 21.5616 23.0193 21.341 23.019C21.1203 23.0197 20.9016 22.9768 20.6975 22.8927C20.4935 22.8086 20.3081 22.685 20.152 22.529ZM6.48905 6.48904C5.23183 7.75017 4.52579 9.45829 4.52579 11.239C4.52579 13.0198 5.23183 14.7279 6.48905 15.989C7.75019 17.2463 9.4583 17.9522 11.239 17.9522C13.0198 17.9522 14.7279 17.2463 15.989 15.989C17.2463 14.7279 17.9522 13.0198 17.9522 11.239C17.9522 9.45829 17.2463 7.75017 15.989 6.48904C15.3654 5.8644 14.6243 5.36915 13.8086 5.03176C12.993 4.69437 12.1187 4.52149 11.236 4.52304C10.3543 4.52228 9.48113 4.69555 8.66654 5.03292C7.85195 5.37028 7.11202 5.86511 6.48905 6.48904Z" fill="none"/>
</g>
<defs>
<clipPath id="clip0_1161_26">
<rect width="24" height="24" fill="white"/>
</clipPath>
</defs>
</svg>
